<svg id="wave" style="transform:rotate(0deg); transition: 0.3s" viewBox="0 0 1440 150" version="1.1" xmlns="http://www.w3.org/2000/svg"><defs><linearGradient id="sw-gradient-0" x1="0" x2="0" y1="1" y2="0"><stop stop-color="rgba(33, 33, 47, 1)" offset="0%"></stop><stop stop-color="rgba(51, 51, 73, 1)" offset="100%"></stop></linearGradient></defs><path style="transform:translate(0, 0px); opacity:1" fill="url(#sw-gradient-0)" d="M0,60L60,52.5C120,45,240,30,360,32.5C480,35,600,55,720,70C840,85,960,95,1080,97.5C1200,100,1320,95,1440,90C1560,85,1680,80,1800,67.5C1920,55,2040,35,2160,25C2280,15,2400,15,2520,17.5C2640,20,2760,25,2880,30C3000,35,3120,40,3240,55C3360,70,3480,95,3600,95C3720,95,3840,70,3960,57.5C4080,45,4200,45,4320,42.5C4440,40,4560,35,4680,45C4800,55,4920,80,5040,85C5160,90,5280,75,5400,62.5C5520,50,5640,40,5760,45C5880,50,6000,70,6120,77.5C6240,85,6360,80,6480,87.5C6600,95,6720,115,6840,107.5C6960,100,7080,65,7200,62.5C7320,60,7440,90,7560,97.5C7680,105,7800,90,7920,75C8040,60,8160,45,8280,40C8400,35,8520,40,8580,42.5L8640,45L8640,150L8580,150C8520,150,8400,150,8280,150C8160,150,8040,150,7920,150C7800,150,7680,150,7560,150C7440,150,7320,150,7200,150C7080,150,6960,150,6840,150C6720,150,6600,150,6480,150C6360,150,6240,150,6120,150C6000,150,5880,150,5760,150C5640,150,5520,150,5400,150C5280,150,5160,150,5040,150C4920,150,4800,150,4680,150C4560,150,4440,150,4320,150C4200,150,4080,150,3960,150C3840,150,3720,150,3600,150C3480,150,3360,150,3240,150C3120,150,3000,150,2880,150C2760,150,2640,150,2520,150C2400,150,2280,150,2160,150C2040,150,1920,150,1800,150C1680,150,1560,150,1440,150C1320,150,1200,150,1080,150C960,150,840,150,720,150C600,150,480,150,360,150C240,150,120,150,60,150L0,150Z"></path></svg>